<?xml version="1.0" encoding="utf-8"?>
<!-- Generator: Adobe Illustrator 22.0.0, SVG Export Plug-In . SVG Version: 6.00 Build 0)  -->
<svg version="1.1" id="Calque_1" xmlns="http://www.w3.org/2000/svg" xmlns:xlink="http://www.w3.org/1999/xlink" x="0px" y="0px"
	 viewBox="0 0 301.9 301.5" style="enable-background:new 0 0 301.9 301.5;" xml:space="preserve">
<path d="M295.8,65.4c-8.1-8.1-21.2-8.1-29.3,0L150.9,181L35.4,65.4c-8.1-8.1-21.2-8.1-29.3,0s-8.1,21.2,0,29.3l137,137
	c0.7-0.4,1.6-0.7,2.5-0.8c3.3-0.3,6.6-0.7,10-0.7c0.4,0,0.8,0,1.2,0.1c0.9,0.2,1.7,0.5,2.3,1.1L295.8,94.7
	C303.9,86.6,303.9,73.5,295.8,65.4z"/>
<circle cx="150.9" cy="224.5" r="10.7"/>
</svg>
