<?xml version="1.0" encoding="utf-8"?>
<!-- Generator: Adobe Illustrator 22.0.0, SVG Export Plug-In . SVG Version: 6.00 Build 0)  -->
<svg version="1.1" id="Calque_1" xmlns="http://www.w3.org/2000/svg" xmlns:xlink="http://www.w3.org/1999/xlink" x="0px" y="0px"
	 viewBox="0 0 300 300" style="enable-background:new 0 0 300 300;" xml:space="preserve">
<style type="text/css">
	.st0{display:none;fill:#0B948A;}
	.st1{fill:none;stroke:#FFFFFF;stroke-width:4;stroke-miterlimit:10;}
	.st2{fill:none;stroke:#FFFFFF;stroke-width:2;stroke-miterlimit:10;}
	.st3{fill:none;stroke:#FFFFFF;stroke-width:0.75;stroke-miterlimit:10;}
</style>
<rect class="st0" width="300" height="300"/>
<line class="st1" x1="1" y1="0" x2="1" y2="300"/>
<line class="st2" x1="150" y1="0" x2="150" y2="300"/>
<line class="st3" x1="30.1" y1="0" x2="30.1" y2="300"/>
<line class="st3" x1="59.9" y1="0" x2="59.9" y2="300"/>
<line class="st3" x1="90" y1="0" x2="90" y2="300"/>
<line class="st3" x1="119.8" y1="0" x2="119.8" y2="300"/>
<line class="st3" x1="179.9" y1="0" x2="179.9" y2="300"/>
<line class="st3" x1="209.8" y1="0" x2="209.8" y2="300"/>
<line class="st3" x1="239.9" y1="0" x2="239.9" y2="300"/>
<line class="st3" x1="269.7" y1="0" x2="269.7" y2="300"/>
<line class="st1" x1="300" y1="1.1" x2="1.2" y2="1.1"/>
<line class="st2" x1="300" y1="150.1" x2="1.2" y2="150.1"/>
<line class="st3" x1="300" y1="30.2" x2="1.2" y2="30.2"/>
<line class="st3" x1="300" y1="60" x2="1.2" y2="60"/>
<line class="st3" x1="300" y1="90.1" x2="1.2" y2="90.1"/>
<line class="st3" x1="300" y1="119.9" x2="1.2" y2="119.9"/>
<line class="st3" x1="300" y1="180" x2="1.2" y2="180"/>
<line class="st3" x1="300" y1="209.9" x2="1.2" y2="209.9"/>
<line class="st3" x1="300" y1="240" x2="1.2" y2="240"/>
<line class="st3" x1="300" y1="269.8" x2="1.2" y2="269.8"/>
</svg>
