<?xml version="1.0" encoding="utf-8"?>
<!-- Generator: Adobe Illustrator 22.0.0, SVG Export Plug-In . SVG Version: 6.00 Build 0)  -->
<svg version="1.1" id="Calque_1" xmlns="http://www.w3.org/2000/svg" xmlns:xlink="http://www.w3.org/1999/xlink" x="0px" y="0px"
	 viewBox="0 0 576 512" style="enable-background:new 0 0 576 512;" xml:space="preserve">
<path d="M471,32H112c-8.8,0-16,7.2-16,16v96c0,8.8,7.2,16,16,16h32c8.8,0,16-7.2,16-16v-32h88v304h-40c-8.8,0-16,7.2-16,16v32
	c0,8.8,7.2,16,16,16h160c8.8,0,16-7.2,16-16v-32c0-8.8-7.2-16-16-16h-40V112h95v32c0,8.8,7.2,16,16,16h32c8.8,0,16-7.2,16-16V48
	C487,39.2,479.8,32,471,32z"/>
</svg>
